<svg width="50" height="24" viewBox="0 0 50 24" fill="none" xmlns="http://www.w3.org/2000/svg">
    <path d="M37.135 24C43.755 24 49.135 18.62 49.135 12C49.135 5.39 43.755 0 37.135 0C32.385 0 28.175 2.73 26.225 7L5.46501 7L0.865013 11.7L7.00501 16.22L10.115 14.21L12.865 16.15L16.845 14.07L20.825 15.52L22.415 15L25.515 15C26.865 20.27 31.625 24 37.135 24ZM39.135 12C39.135 10.35 40.475 9 42.135 9C43.785 9 45.135 10.35 45.135 12C45.135 13.66 43.785 15 42.135 15C40.475 15 39.135 13.66 39.135 12Z" fill="#00B300"/>
    </svg>
    