<svg width="446" height="206" viewBox="0 0 446 206" fill="none" xmlns="http://www.w3.org/2000/svg">
    <path d="M435.108 116.205H10.892C9.22751 116.205 7.58932 116.62 6.12599 117.414C4.66267 118.207 3.42052 119.353 2.51216 120.748C1.60381 122.143 1.05799 123.742 0.924201 125.401C0.790416 127.06 1.07289 128.727 1.74602 130.249L32.604 200.038C33.3876 201.81 34.6691 203.316 36.2928 204.374C37.9165 205.431 39.8124 205.994 41.75 205.994H282.536C284.474 205.994 286.37 205.431 287.993 204.374C289.617 203.316 290.898 201.81 291.682 200.038L319.906 136.205H435.108C437.76 136.205 440.304 135.151 442.179 133.276C444.054 131.401 445.108 128.857 445.108 126.205C445.108 123.553 444.054 121.009 442.179 119.134C440.304 117.259 437.76 116.205 435.108 116.205ZM282.778 154.643L274.028 174.431C273.362 175.937 272.273 177.218 270.893 178.116C269.513 179.015 267.902 179.494 266.255 179.494H200.857C198.603 179.494 196.441 178.598 194.847 177.004C193.253 175.41 192.357 173.248 192.357 170.994C192.357 168.74 193.253 166.578 194.847 164.984C196.441 163.39 198.603 162.494 200.857 162.494H260.719L267.231 147.768C267.682 146.747 268.331 145.825 269.138 145.055C269.946 144.284 270.898 143.68 271.939 143.278C272.98 142.875 274.09 142.681 275.206 142.708C276.322 142.734 277.422 142.98 278.443 143.431C279.463 143.883 280.385 144.531 281.156 145.339C281.926 146.146 282.53 147.098 282.933 148.139C283.335 149.18 283.529 150.29 283.503 151.406C283.476 152.522 283.229 153.622 282.778 154.643ZM305.164 83.065C286.41 66.5299 264.713 53.6706 241.204 45.158C224.42 38.9857 206.956 34.8459 189.187 32.827V25.606C189.187 12.01 178.022 0.783999 163.771 0.0479991C162.687 -0.0081872 161.601 -0.0081872 160.517 0.0479991C146.263 0.783999 135.098 12.01 135.098 25.606V32.826C117.329 34.8445 99.8656 38.984 83.081 45.156C59.5726 53.6678 37.8753 66.5261 19.121 83.06C17.6065 84.4079 16.5375 86.1842 16.0557 88.1536C15.5739 90.1229 15.7021 92.1922 16.4233 94.087C17.1444 95.9819 18.4245 97.6127 20.0938 98.7634C21.763 99.9141 23.7426 100.53 25.77 100.53L298.517 100.534C300.544 100.534 302.524 99.9177 304.193 98.767C305.862 97.6162 307.142 95.9853 307.863 94.0906C308.584 92.1958 308.712 90.1266 308.23 88.1574C307.748 86.1881 306.679 84.4118 305.165 83.064L305.164 83.065Z" fill="#AD0000"/>
    </svg>
    